{
  "accessors": [
    {
      "bufferView": 2,
      "componentType": 5126,
      "count": 401,
      "max": [
        0.7574153542518616,
        1.578097939491272,
        1.2635252475738525
      ],
      "min": [
        -0.7574153542518616,
        -0.3911682963371277,
        -0.8302456140518188
      ],
      "type": "VEC3"
    },
    {
      "bufferView": 2,
      "byteOffset": 4812,
      "componentType": 5126,
      "count": 401,
      "max": [
        0.9972699284553528,
        0.9892505407333374,
        0.9961025714874268
      ],
      "min": [
        -0.9972790479660034,
        -0.9993312358856201,
        -0.9996440410614014
      ],
      "type": "VEC3"
    },
    {
      "bufferView": 1,
      "componentType": 5126,
      "count": 401,
      "max": [
        0.9911209344863892,
        0.9074223041534424
      ],
      "min": [
        0.00887906551361084,
        0.00887910183519125
      ],
      "type": "VEC2"
    },
    {
      "bufferView": 0,
      "componentType": 5125,
      "count": 1620,
      "type": "SCALAR"
    },
    {
      "bufferView": 2,
      "byteOffset": 9624,
      "componentType": 5126,
      "count": 440,
      "max": [
        2.044522285461426,
        3.008848190307617,
        1.3477609157562256
      ],
      "min": [
        -2.044522285461426,
        -0.07739340513944626,
        -3.67738676071167
      ],
      "type": "VEC3"
    },
    {
      "bufferView": 2,
      "byteOffset": 14904,
      "componentType": 5126,
      "count": 440,
      "max": [
        0.9904605150222778,
        0.9578404426574707,
        0.9967859983444214
      ],
      "min": [
        -0.9904605150222778,
        -0.9989564418792725,
        -0.9766896367073059
      ],
      "type": "VEC3"
    },
    {
      "bufferView": 1,
      "byteOffset": 3208,
      "componentType": 5126,
      "count": 440,
      "max": [
        0.9887526631355286,
        0.9619581699371338
      ],
      "min": [
        0.011247346177697182,
        0.011247342452406883
      ],
      "type": "VEC2"
    },
    {
      "bufferView": 0,
      "byteOffset": 6480,
      "componentType": 5125,
      "count": 1584,
      "type": "SCALAR"
    },
    {
      "bufferView": 2,
      "byteOffset": 20184,
      "componentType": 5126,
      "count": 959,
      "max": [
        1.9284968376159668,
        2.25697660446167,
        0.4615887701511383
      ],
      "min": [
        -1.9284968376159668,
        -1.0389994382858276,
        -5.627464771270752
      ],
      "type": "VEC3"
    },
    {
      "bufferView": 2,
      "byteOffset": 31692,
      "componentType": 5126,
      "count": 959,
      "max": [
        0.9999756217002869,
        0.9986757636070251,
        0.9924068450927734
      ],
      "min": [
        -0.9999756813049316,
        -0.9999971389770508,
        -0.9999420642852783
      ],
      "type": "VEC3"
    },
    {
      "bufferView": 1,
      "byteOffset": 6728,
      "componentType": 5126,
      "count": 959,
      "max": [
        0.9859853386878967,
        0.9695097804069519
      ],
      "min": [
        0.0,
        0.0
      ],
      "type": "VEC2"
    },
    {
      "bufferView": 0,
      "byteOffset": 12816,
      "componentType": 5125,
      "count": 3264,
      "type": "SCALAR"
    },
    {
      "bufferView": 3,
      "componentType": 5126,
      "count": 295,
      "max": [
        5.0
      ],
      "min": [
        0.0
      ],
      "type": "SCALAR"
    },
    {
      "bufferView": 4,
      "componentType": 5126,
      "count": 295,
      "max": [
        0.4993414282798767,
        0.7071067094802856,
        0.7071068286895752,
        0.7071067094802856
      ],
      "min": [
        -0.7071068286895752,
        -0.4937218129634857,
        -0.4937218725681305,
        -0.4993527829647064
      ],
      "type": "VEC4"
    }
  ],
  "animations": [
    {
      "channels": [
        {
          "sampler": 0,
          "target": {
            "node": 11,
            "path": "rotation"
          }
        }
      ],
      "name": "Roundcube.001|Roundcube.001Action",
      "samplers": [
        {
          "input": 12,
          "interpolation": "LINEAR",
          "output": 13
        }
      ]
    }
  ],
  "asset": {
    "extras": {
      "author": "Gabrielonstartdesk (https://sketchfab.com/Gabrielonstartdesk)",
      "license": "CC-BY-4.0 (http://creativecommons.org/licenses/by/4.0/)",
      "source": "https://sketchfab.com/3d-models/nun-psx-style-lowpoly-6c8db3f32d8c409eb4fb2d3842d23f07",
      "title": "Nun PSX style Lowpoly"
    },
    "generator": "Sketchfab-15.42.0",
    "version": "2.0"
  },
  "bufferViews": [
    {
      "buffer": 0,
      "byteLength": 25872,
      "name": "floatBufferViews",
      "target": 34963
    },
    {
      "buffer": 0,
      "byteLength": 14400,
      "byteOffset": 25872,
      "byteStride": 8,
      "name": "floatBufferViews",
      "target": 34962
    },
    {
      "buffer": 0,
      "byteLength": 43200,
      "byteOffset": 40272,
      "byteStride": 12,
      "name": "floatBufferViews",
      "target": 34962
    },
    {
      "buffer": 0,
      "byteLength": 1180,
      "byteOffset": 83472,
      "name": "floatBufferViews"
    },
    {
      "buffer": 0,
      "byteLength": 4720,
      "byteOffset": 84652,
      "byteStride": 16,
      "name": "floatBufferViews"
    }
  ],
  "buffers": [
    {
      "byteLength": 89372,
      "uri": "scene.bin"
    }
  ],
  "images": [
    {
      "uri": "textures/Materiale_baseColor.png"
    },
    {
      "uri": "textures/Materiale.001_baseColor.png"
    },
    {
      "uri": "textures/Materiale.003_baseColor.png"
    }
  ],
  "materials": [
    {
      "doubleSided": true,
      "name": "Materiale",
      "pbrMetallicRoughness": {
        "baseColorTexture": {
          "index": 0
        },
        "metallicFactor": 0.0
      }
    },
    {
      "doubleSided": true,
      "name": "Materiale.001",
      "pbrMetallicRoughness": {
        "baseColorTexture": {
          "index": 1
        },
        "metallicFactor": 0.0
      }
    },
    {
      "doubleSided": true,
      "name": "Materiale.003",
      "pbrMetallicRoughness": {
        "baseColorTexture": {
          "index": 2
        },
        "metallicFactor": 0.0
      }
    }
  ],
  "meshes": [
    {
      "name": "Roundcube.001_Materiale_0",
      "primitives": [
        {
          "attributes": {
            "NORMAL": 1,
            "POSITION": 0,
            "TEXCOORD_0": 2
          },
          "indices": 3,
          "material": 0,
          "mode": 4
        }
      ]
    },
    {
      "name": "Roundcube_Materiale.001_0",
      "primitives": [
        {
          "attributes": {
            "NORMAL": 5,
            "POSITION": 4,
            "TEXCOORD_0": 6
          },
          "indices": 7,
          "material": 1,
          "mode": 4
        }
      ]
    },
    {
      "name": "Cubo_Materiale.003_0",
      "primitives": [
        {
          "attributes": {
            "NORMAL": 9,
            "POSITION": 8,
            "TEXCOORD_0": 10
          },
          "indices": 11,
          "material": 2,
          "mode": 4
        }
      ]
    }
  ],
  "nodes": [
    {
      "children": [
        1
      ],
      "matrix": [
        1.0,
        0.0,
        0.0,
        0.0,
        0.0,
        2.220446049250313e-16,
        -1.0,
        0.0,
        0.0,
        1.0,
        2.220446049250313e-16,
        0.0,
        0.0,
        0.0,
        0.0,
        1.0
      ],
      "name": "Sketchfab_model"
    },
    {
      "children": [
        2
      ],
      "matrix": [
        0.009999999776482582,
        0.0,
        0.0,
        0.0,
        0.0,
        0.0,
        0.009999999776482582,
        0.0,
        0.0,
        -0.009999999776482582,
        0.0,
        0.0,
        0.0,
        0.0,
        0.0,
        1.0
      ],
      "name": "898b7399ebdf488595569d08e1add0fe.fbx"
    },
    {
      "children": [
        3
      ],
      "name": "Object_2"
    },
    {
      "children": [
        4,
        7,
        9,
        10,
        11,
        18,
        19,
        22
      ],
      "name": "RootNode"
    },
    {
      "children": [
        5
      ],
      "name": "Light",
      "rotation": [
        0.16907575726509094,
        0.7558803558349609,
        -0.27217137813568115,
        0.5709474682807922
      ],
      "scale": [
        100.00000762939453,
        100.0,
        100.0
      ],
      "translation": [
        407.6245422363281,
        590.38623046875,
        -100.54539489746094
      ]
    },
    {
      "children": [
        6
      ],
      "matrix": [
        1.0,
        0.0,
        0.0,
        0.0,
        0.0,
        2.220446049250313e-16,
        1.0,
        0.0,
        0.0,
        -1.0,
        2.220446049250313e-16,
        0.0,
        0.0,
        0.0,
        0.0,
        1.0
      ],
      "name": "Object_5"
    },
    {
      "name": "Object_6"
    },
    {
      "children": [
        8
      ],
      "name": "Camera",
      "rotation": [
        -0.12406417727470398,
        0.5696709156036377,
        -0.14459605515003204,
        0.7994843125343323
      ],
      "scale": [
        100.00000762939453,
        100.0,
        100.0
      ],
      "translation": [
        -404.2917785644531,
        893.731689453125,
        1194.5059814453125
      ]
    },
    {
      "name": "Object_8"
    },
    {
      "name": "Vuoto",
      "rotation": [
        8.146034957690063e-08,
        0.0,
        0.0,
        1.0
      ],
      "scale": [
        127.79013061523438,
        127.79013061523438,
        127.79013061523438
      ],
      "translation": [
        -6.016066551208496,
        -186.74241638183594,
        -933.4135131835938
      ]
    },
    {
      "name": "Vuoto.001",
      "rotation": [
        1.5454313384566376e-08,
        0.7071067690849304,
        -1.5454311608209537e-08,
        0.7071068286895752
      ],
      "scale": [
        100.0,
        100.0,
        100.0
      ],
      "translation": [
        -761.694091796875,
        0.0,
        -4.3762359619140625
      ]
    },
    {
      "children": [
        12,
        13,
        15,
        17
      ],
      "name": "Roundcube.001",
      "rotation": [
        -0.7071068286895752,
        0.0,
        0.0,
        0.7071067094802856
      ],
      "scale": [
        33.01348876953125,
        33.01348876953125,
        33.01348876953125
      ],
      "translation": [
        -5.1930060386657715,
        557.2903442382813,
        0.7366068363189697
      ]
    },
    {
      "mesh": 0,
      "name": "Roundcube.001_Materiale_0"
    },
    {
      "children": [
        14
      ],
      "name": "Roundcube",
      "rotation": [
        -2.1126343485482788e-23,
        -0.0,
        0.0,
        1.0
      ],
      "scale": [
        1.2529276609420776,
        1.2529276609420776,
        1.2529276609420776
      ],
      "translation": [
        0.023487448692321777,
        0.020336275920271873,
        0.0024051666259765625
      ]
    },
    {
      "mesh": 1,
      "name": "Roundcube_Materiale.001_0"
    },
    {
      "children": [
        16
      ],
      "name": "Cubo",
      "rotation": [
        -1.377998795319073e-23,
        -0.0,
        0.0,
        1.0
      ],
      "scale": [
        2.2984025478363037,
        1.9208855628967285,
        2.7583281993865967
      ],
      "translation": [
        0.02249056100845337,
        0.018452608957886696,
        -1.3260021209716797
      ]
    },
    {
      "mesh": 2,
      "name": "Cubo_Materiale.003_0"
    },
    {
      "name": "Vuoto.003",
      "rotation": [
        -1.747719442250979e-23,
        -0.0,
        0.0,
        1.0
      ],
      "scale": [
        3.0290651321411133,
        3.0290651321411133,
        3.0290651321411133
      ],
      "translation": [
        0.15729954838752747,
        0.02231230027973652,
        -16.880687713623047
      ]
    },
    {
      "name": "Vuoto.002",
      "rotation": [
        8.146034247147327e-08,
        0.0,
        0.0,
        1.0
      ],
      "scale": [
        42.217098236083984,
        42.217098236083984,
        42.217098236083984
      ]
    },
    {
      "children": [
        20
      ],
      "name": "Spot",
      "rotation": [
        0.5863853693008423,
        0.1331275999546051,
        0.09918244183063507,
        0.7928379774093628
      ],
      "scale": [
        99.99999237060547,
        100.0,
        99.99999237060547
      ],
      "translation": [
        4.149952411651611,
        775.25830078125,
        1178.560302734375
      ]
    },
    {
      "children": [
        21
      ],
      "matrix": [
        1.0,
        0.0,
        0.0,
        0.0,
        0.0,
        2.220446049250313e-16,
        1.0,
        0.0,
        0.0,
        -1.0,
        2.220446049250313e-16,
        0.0,
        0.0,
        0.0,
        0.0,
        1.0
      ],
      "name": "Object_20"
    },
    {
      "name": "Object_21"
    },
    {
      "children": [
        23
      ],
      "name": "Spot.001",
      "rotation": [
        0.5653224587440491,
        -0.11387651413679123,
        0.2635209858417511,
        0.7733041644096375
      ],
      "scale": [
        100.00000762939453,
        100.0,
        99.99999237060547
      ],
      "translation": [
        -874.45458984375,
        775.25830078125,
        1178.560302734375
      ]
    },
    {
      "children": [
        24
      ],
      "matrix": [
        1.0,
        0.0,
        0.0,
        0.0,
        0.0,
        2.220446049250313e-16,
        1.0,
        0.0,
        0.0,
        -1.0,
        2.220446049250313e-16,
        0.0,
        0.0,
        0.0,
        0.0,
        1.0
      ],
      "name": "Object_23"
    },
    {
      "name": "Object_24"
    }
  ],
  "samplers": [
    {
      "magFilter": 9729,
      "minFilter": 9987,
      "wrapS": 10497,
      "wrapT": 10497
    }
  ],
  "scene": 0,
  "scenes": [
    {
      "name": "Sketchfab_Scene",
      "nodes": [
        0
      ]
    }
  ],
  "textures": [
    {
      "sampler": 0,
      "source": 0
    },
    {
      "sampler": 0,
      "source": 1
    },
    {
      "sampler": 0,
      "source": 2
    }
  ]
}
