{
  "accessors": [
    {
      "bufferView": 2,
      "componentType": 5126,
      "count": 1153,
      "max": [
        1.2575284242630005,
        1.148006558418274,
        4.592045307159424
      ],
      "min": [
        -1.2575284242630005,
        -0.9910625219345093,
        0.551927924156189
      ],
      "type": "VEC3"
    },
    {
      "bufferView": 2,
      "byteOffset": 13836,
      "componentType": 5126,
      "count": 1153,
      "max": [
        0.9993267059326172,
        0.9979376196861267,
        0.717932939529419
      ],
      "min": [
        -0.9993267059326172,
        -0.9999330639839172,
        -0.9990862607955933
      ],
      "type": "VEC3"
    },
    {
      "bufferView": 1,
      "componentType": 5126,
      "count": 1153,
      "max": [
        0.0,
        0.0
      ],
      "min": [
        0.0,
        0.0
      ],
      "type": "VEC2"
    },
    {
      "bufferView": 0,
      "componentType": 5125,
      "count": 6636,
      "type": "SCALAR"
    },
    {
      "bufferView": 2,
      "byteOffset": 27672,
      "componentType": 5126,
      "count": 3125,
      "max": [
        8.618024826049805,
        1.0530518293380737,
        10.446290969848633
      ],
      "min": [
        -8.618024826049805,
        -1.3371654748916626,
        6.190977573394775
      ],
      "type": "VEC3"
    },
    {
      "bufferView": 2,
      "byteOffset": 65172,
      "componentType": 5126,
      "count": 3125,
      "max": [
        0.9996321797370911,
        0.9997487664222717,
        0.9994285106658936
      ],
      "min": [
        -0.9996321797370911,
        -0.9999669790267944,
        -0.999369740486145
      ],
      "type": "VEC3"
    },
    {
      "bufferView": 1,
      "byteOffset": 9224,
      "componentType": 5126,
      "count": 3125,
      "max": [
        0.0,
        0.0
      ],
      "min": [
        0.0,
        0.0
      ],
      "type": "VEC2"
    },
    {
      "bufferView": 0,
      "byteOffset": 26544,
      "componentType": 5125,
      "count": 18408,
      "type": "SCALAR"
    },
    {
      "bufferView": 2,
      "byteOffset": 102672,
      "componentType": 5126,
      "count": 830,
      "max": [
        1.8876914978027344,
        1.0530518293380737,
        8.116811752319336
      ],
      "min": [
        -1.8876914978027344,
        -1.2224079370498657,
        4.524267673492432
      ],
      "type": "VEC3"
    },
    {
      "bufferView": 2,
      "byteOffset": 112632,
      "componentType": 5126,
      "count": 830,
      "max": [
        0.9993267059326172,
        0.9999876022338867,
        0.9743423461914063
      ],
      "min": [
        -0.9993267059326172,
        -0.9996625781059265,
        -0.8019484281539917
      ],
      "type": "VEC3"
    },
    {
      "bufferView": 1,
      "byteOffset": 34224,
      "componentType": 5126,
      "count": 830,
      "max": [
        0.9025099873542786,
        0.9278600215911865
      ],
      "min": [
        0.0,
        0.0
      ],
      "type": "VEC2"
    },
    {
      "bufferView": 0,
      "byteOffset": 100176,
      "componentType": 5125,
      "count": 4440,
      "type": "SCALAR"
    },
    {
      "bufferView": 2,
      "byteOffset": 122592,
      "componentType": 5126,
      "count": 316,
      "max": [
        1.0431991815567017,
        0.47437167167663574,
        0.6421051621437073
      ],
      "min": [
        -1.0431991815567017,
        -1.2784702777862549,
        -0.0007205425063148141
      ],
      "type": "VEC3"
    },
    {
      "bufferView": 2,
      "byteOffset": 126384,
      "componentType": 5126,
      "count": 316,
      "max": [
        0.9982465505599976,
        0.9999812245368958,
        1.0000040531158447
      ],
      "min": [
        -0.9982465505599976,
        -0.9576044082641602,
        -1.0000033378601074
      ],
      "type": "VEC3"
    },
    {
      "bufferView": 0,
      "byteOffset": 117936,
      "componentType": 5125,
      "count": 1788,
      "type": "SCALAR"
    },
    {
      "bufferView": 2,
      "byteOffset": 130176,
      "componentType": 5126,
      "count": 962,
      "max": [
        0.6275232434272766,
        -0.30461856722831726,
        10.109975814819336
      ],
      "min": [
        -0.6275232434272766,
        -0.8352764248847961,
        9.579571723937988
      ],
      "type": "VEC3"
    },
    {
      "bufferView": 2,
      "byteOffset": 141720,
      "componentType": 5126,
      "count": 962,
      "max": [
        0.9975081086158752,
        0.9966362118721008,
        0.9965630173683167
      ],
      "min": [
        -0.9975081086158752,
        -0.9966352581977844,
        -0.9965630173683167
      ],
      "type": "VEC3"
    },
    {
      "bufferView": 0,
      "byteOffset": 125088,
      "componentType": 5125,
      "count": 5568,
      "type": "SCALAR"
    },
    {
      "bufferView": 2,
      "byteOffset": 153264,
      "componentType": 5126,
      "count": 24,
      "max": [
        0.1405699998140335,
        0.45839574933052063,
        11.263354301452637
      ],
      "min": [
        -0.1405699998140335,
        -1.6036993265151978,
        10.067211151123047
      ],
      "type": "VEC3"
    },
    {
      "bufferView": 2,
      "byteOffset": 153552,
      "componentType": 5126,
      "count": 24,
      "max": [
        1.0,
        0.4810551702976227,
        0.8766860365867615
      ],
      "min": [
        -1.0,
        -0.8804664015769958,
        -0.9989596605300903
      ],
      "type": "VEC3"
    },
    {
      "bufferView": 0,
      "byteOffset": 147360,
      "componentType": 5125,
      "count": 42,
      "type": "SCALAR"
    },
    {
      "bufferView": 2,
      "byteOffset": 153840,
      "componentType": 5126,
      "count": 66,
      "max": [
        0.47157493233680725,
        -0.8013362288475037,
        9.837998390197754
      ],
      "min": [
        -0.47157493233680725,
        -0.8339663147926331,
        9.737029075622559
      ],
      "type": "VEC3"
    },
    {
      "bufferView": 2,
      "byteOffset": 154632,
      "componentType": 5126,
      "count": 66,
      "max": [
        0.41692090034484863,
        -0.8665338158607483,
        -0.019444357603788376
      ],
      "min": [
        -0.41692090034484863,
        -0.9928426146507263,
        -0.41033777594566345
      ],
      "type": "VEC3"
    },
    {
      "bufferView": 0,
      "byteOffset": 147528,
      "componentType": 5125,
      "count": 192,
      "type": "SCALAR"
    },
    {
      "bufferView": 3,
      "componentType": 5126,
      "count": 1,
      "max": [
        1.0,
        0.0,
        0.0,
        0.0,
        0.0,
        1.0,
        0.0,
        0.0,
        0.0,
        0.0,
        1.0,
        0.0,
        0.0,
        0.0,
        0.0,
        1.0
      ],
      "min": [
        1.0,
        0.0,
        0.0,
        0.0,
        0.0,
        1.0,
        0.0,
        0.0,
        0.0,
        0.0,
        1.0,
        0.0,
        0.0,
        0.0,
        0.0,
        1.0
      ],
      "type": "MAT4"
    }
  ],
  "asset": {
    "extras": {
      "author": "rybreads (https://sketchfab.com/rybreads)",
      "license": "CC-BY-4.0 (http://creativecommons.org/licenses/by/4.0/)",
      "source": "https://sketchfab.com/3d-models/chad-f8a714c7d75140618d0e54e487f1d17b",
      "title": "Chad"
    },
    "generator": "Sketchfab-12.64.0",
    "version": "2.0"
  },
  "bufferViews": [
    {
      "buffer": 0,
      "byteLength": 148296,
      "name": "floatBufferViews",
      "target": 34963
    },
    {
      "buffer": 0,
      "byteLength": 40864,
      "byteOffset": 148296,
      "byteStride": 8,
      "name": "floatBufferViews",
      "target": 34962
    },
    {
      "buffer": 0,
      "byteLength": 155424,
      "byteOffset": 189160,
      "byteStride": 12,
      "name": "floatBufferViews",
      "target": 34962
    },
    {
      "buffer": 0,
      "byteLength": 64,
      "byteOffset": 344584,
      "name": "floatBufferViews"
    }
  ],
  "buffers": [
    {
      "byteLength": 344648,
      "uri": "scene.bin"
    }
  ],
  "materials": [
    {
      "doubleSided": true,
      "name": "trousers",
      "pbrMetallicRoughness": {
        "baseColorFactor": [
          0.0296144709,
          0.8000000715,
          0.0,
          1.0
        ],
        "metallicFactor": 0.0,
        "roughnessFactor": 0.6
      }
    },
    {
      "doubleSided": true,
      "name": "skin",
      "pbrMetallicRoughness": {
        "baseColorFactor": [
          0.7529424429,
          0.5394796729,
          0.4341537058,
          1.0
        ],
        "metallicFactor": 0.0,
        "roughnessFactor": 0.6
      }
    },
    {
      "doubleSided": true,
      "name": "shirt",
      "pbrMetallicRoughness": {
        "baseColorFactor": [
          1.0,
          0.000607054,
          0.0865004733,
          1.0
        ],
        "metallicFactor": 0.0,
        "roughnessFactor": 0.6
      }
    },
    {
      "doubleSided": true,
      "name": "shoes",
      "pbrMetallicRoughness": {
        "baseColorFactor": [
          0.8307698369,
          0.9911022186,
          0.0,
          1.0
        ],
        "metallicFactor": 0.0,
        "roughnessFactor": 0.6
      }
    },
    {
      "doubleSided": true,
      "name": "eyes",
      "pbrMetallicRoughness": {
        "baseColorFactor": [
          0.8000000119,
          0.8000000119,
          0.8000000119,
          1.0
        ],
        "metallicFactor": 0.0,
        "roughnessFactor": 0.6
      }
    },
    {
      "doubleSided": true,
      "name": "hair",
      "pbrMetallicRoughness": {
        "baseColorFactor": [
          0.9822508097,
          0.8796226382,
          0.0009105807,
          1.0
        ],
        "metallicFactor": 0.0,
        "roughnessFactor": 0.6
      }
    },
    {
      "doubleSided": true,
      "name": "eyes.001",
      "pbrMetallicRoughness": {
        "baseColorFactor": [
          0.0,
          0.0,
          0.0,
          1.0
        ],
        "metallicFactor": 0.0,
        "roughnessFactor": 0.6
      }
    }
  ],
  "meshes": [
    {
      "name": "chad_0",
      "primitives": [
        {
          "attributes": {
            "NORMAL": 1,
            "POSITION": 0,
            "TEXCOORD_0": 2
          },
          "indices": 3,
          "material": 0,
          "mode": 4
        }
      ]
    },
    {
      "name": "chad_1",
      "primitives": [
        {
          "attributes": {
            "NORMAL": 5,
            "POSITION": 4,
            "TEXCOORD_0": 6
          },
          "indices": 7,
          "material": 1,
          "mode": 4
        }
      ]
    },
    {
      "name": "chad_2",
      "primitives": [
        {
          "attributes": {
            "NORMAL": 9,
            "POSITION": 8,
            "TEXCOORD_0": 10
          },
          "indices": 11,
          "material": 2,
          "mode": 4
        }
      ]
    },
    {
      "name": "Cube.002_0",
      "primitives": [
        {
          "attributes": {
            "NORMAL": 13,
            "POSITION": 12
          },
          "indices": 14,
          "material": 3,
          "mode": 4
        }
      ]
    },
    {
      "name": "Sphere_0",
      "primitives": [
        {
          "attributes": {
            "NORMAL": 16,
            "POSITION": 15
          },
          "indices": 17,
          "material": 4,
          "mode": 4
        }
      ]
    },
    {
      "name": "Sphere_1",
      "primitives": [
        {
          "attributes": {
            "NORMAL": 19,
            "POSITION": 18
          },
          "indices": 20,
          "material": 5,
          "mode": 4
        }
      ]
    },
    {
      "name": "Sphere_2",
      "primitives": [
        {
          "attributes": {
            "NORMAL": 22,
            "POSITION": 21
          },
          "indices": 23,
          "material": 6,
          "mode": 4
        }
      ]
    }
  ],
  "nodes": [
    {
      "children": [
        1
      ],
      "matrix": [
        1.0,
        0.0,
        0.0,
        0.0,
        0.0,
        2.220446049250313e-16,
        -1.0,
        0.0,
        0.0,
        1.0,
        2.220446049250313e-16,
        0.0,
        0.0,
        0.0,
        0.0,
        1.0
      ],
      "name": "Sketchfab_model"
    },
    {
      "children": [
        2
      ],
      "name": "Root"
    },
    {
      "children": [
        3,
        4,
        8,
        10
      ],
      "matrix": [
        6.16965,
        0.0,
        0.0,
        0.0,
        0.0,
        6.16965,
        0.0,
        0.0,
        0.0,
        0.0,
        6.16965,
        0.0,
        0.0,
        0.0,
        0.0,
        1.0
      ],
      "name": "chad rig"
    },
    {
      "name": "chad rig_rootJoint"
    },
    {
      "children": [
        5,
        6,
        7
      ],
      "matrix": [
        0.16208000000000003,
        0.0,
        0.0,
        0.0,
        0.0,
        0.16208000000000003,
        0.0,
        0.0,
        0.0,
        0.0,
        0.16208000000000003,
        0.0,
        0.0,
        0.0,
        0.0,
        1.0
      ],
      "name": "chad"
    },
    {
      "mesh": 0,
      "name": "chad_0"
    },
    {
      "mesh": 1,
      "name": "chad_1"
    },
    {
      "mesh": 2,
      "name": "chad_2"
    },
    {
      "children": [
        9
      ],
      "matrix": [
        0.16208000000000003,
        0.0,
        0.0,
        0.0,
        0.0,
        0.16208000000000003,
        0.0,
        0.0,
        0.0,
        0.0,
        0.16208000000000003,
        0.0,
        0.0,
        0.0,
        0.0,
        1.0
      ],
      "name": "Cube.002"
    },
    {
      "mesh": 3,
      "name": "Cube.002_0"
    },
    {
      "children": [
        11,
        12,
        13
      ],
      "matrix": [
        0.16208000000000003,
        0.0,
        0.0,
        0.0,
        0.0,
        0.16208000000000003,
        0.0,
        0.0,
        0.0,
        0.0,
        0.16208000000000003,
        0.0,
        0.0,
        0.0,
        0.0,
        1.0
      ],
      "name": "Sphere"
    },
    {
      "mesh": 4,
      "name": "Sphere_0"
    },
    {
      "mesh": 5,
      "name": "Sphere_1"
    },
    {
      "mesh": 6,
      "name": "Sphere_2"
    }
  ],
  "scene": 0,
  "scenes": [
    {
      "name": "Sketchfab_Scene",
      "nodes": [
        0
      ]
    }
  ],
  "skins": [
    {
      "inverseBindMatrices": 24,
      "joints": [
        3
      ],
      "skeleton": 3
    }
  ]
}
